<?xml version="1.0" encoding="UTF-8" standalone="no"?>
<svg
   xmlns:dc="http://purl.org/dc/elements/1.1/"
   xmlns:cc="http://creativecommons.org/ns#"
   xmlns:rdf="http://www.w3.org/1999/02/22-rdf-syntax-ns#"
   xmlns:svg="http://www.w3.org/2000/svg"
   xmlns="http://www.w3.org/2000/svg"
   viewBox="0 0 687.8667 687.88"
   height="687.88"
   width="687.8667"
   xml:space="preserve"
   id="svg2"
   version="1.1"><metadata
     id="metadata8"><rdf:RDF><cc:Work
         rdf:about=""><dc:format>image/svg+xml</dc:format><dc:type
           rdf:resource="http://purl.org/dc/dcmitype/StillImage" /><dc:title></dc:title></cc:Work></rdf:RDF></metadata><defs
     id="defs6" /><g
     id="layer1"><circle
       r="331.23773"
       cy="345.58832"
       cx="340.58347"
       id="path193"
       style="fill:#ffffff" /></g><g
     transform="matrix(1.3333333,0,0,-1.3333333,0,687.88)"
     id="g10"><g
       transform="scale(0.1)"
       id="g12"><path
         id="path14"
         style="fill:#ffffff;fill-opacity:1;fill-rule:evenodd;stroke:none"
         d="m 1950.87,3911.96 c 0,0 262.46,99.15 404.81,-72.25 285.51,199.08 468.17,11.25 468.17,11.25 l 268.12,419.27 c 0,0 -188.43,187.63 -416.55,27.84 -188.31,159.79 -376.39,55.25 -376.39,55.25 l -348.16,-441.36" /><path
         id="path16"
         style="fill:#231f20;fill-opacity:1;fill-rule:nonzero;stroke:none"
         d="m 1958.31,3913.74 c 0,0 7.25,3.69 10.27,4.61 25.28,7.97 85.19,21.76 153.82,21.76 79.07,0 169.92,-21.17 235.06,-99.65 l 1.83,-2.13 2.17,1.58 c 98.42,68.64 184.27,90.82 254.6,90.82 66.24,0 118.65,-19.74 154.6,-39.69 17.91,-9.88 31.7,-19.79 40.92,-27.23 4.61,-3.68 8.33,-6.79 10.61,-9.03 2.35,-2.07 3.45,-3.34 3.45,-3.34 l 2.62,-2.6 271.29,424.32 -1.52,1.61 c -0.22,0.2 -93.4,93.06 -228.85,93.11 -57.6,0.08 -122.97,-16.9 -191.49,-64.94 l 1.67,-2.3 1.92,2.17 c -82.02,69.71 -164.33,89.54 -231.01,89.45 -87.43,0 -148.43,-33.9 -148.58,-34.03 l -0.49,-0.23 -342.61,-437.74 -0.28,-6.52 10.61,9.7 1.63,3.54 334.88,426.97 -2.37,1.81 1.45,-2.47 c 0,0 3.54,1.96 10.64,5.07 20.72,9.47 70.66,28.21 135.12,28.21 65.59,0 146.19,-19.46 227.26,-88.11 l 1.61,-1.51 1.93,1.3 c 67.63,47.4 131.53,64.04 188.11,64.04 66.45,0 122.71,-22.89 162.25,-45.85 19.82,-11.39 35.39,-22.92 46.22,-31.51 5.14,-4.16 9.36,-7.71 12.04,-10.32 2.83,-2.45 4.21,-3.77 4.21,-3.77 l 1.99,1.98 -2.49,1.51 -268.13,-419.44 2.43,-1.41 2.12,1.98 c -0.13,0.27 -78.78,81.05 -213.76,81.05 -71.58,0 -158.71,-22.77 -258.06,-91.92 l 1.78,-2.36 2.35,1.77 c -66.77,80.46 -159.59,101.85 -239.73,101.85 -70.21,0 -127.09,-13.68 -151.38,-20.98 -7.57,-2.3 -12.71,-11.13 -12.71,-11.13" /><path
         id="path18"
         style="fill:#ffffff;fill-opacity:1;fill-rule:nonzero;stroke:none"
         d="m 2819.36,3816.91 281.62,430.91 -29.53,-9.61 -246.18,-385.24 c 0,0 -182.65,187.81 -468.07,-11.21 -56.59,68 -132.03,93.3 -202.57,99.3 l -144.14,-46.91 c 28.74,5.91 64.82,11.19 104.2,11.19 79.34,0 170.92,-21.24 237.11,-99.83 98.47,68.21 184.87,90.6 255.79,90.6 124.65,0 201.24,-69.07 211.77,-79.2" /><path
         id="path20"
         style="fill:#231f20;fill-opacity:1;fill-rule:nonzero;stroke:none"
         d="m 2819.36,3816.91 2.35,-1.64 286.23,437.8 -38.43,-12.41 -246.98,-386.19 2.74,-1.5 2.08,1.92 c -0.34,0.37 -78.99,81.09 -213.9,81.18 -71.59,0 -158.77,-22.77 -258.06,-91.91 l 1.81,-2.4 2.23,1.81 c -57.22,68.72 -133.33,94.39 -204.34,100.25 l -0.59,0.05 -194.59,-63.08 -0.21,-5.86 51.18,14.73 c 28.75,5.86 64.81,12.84 103.81,12.84 v 1.05 -1.05 1.05 -1.05 c 78.83,0 169.47,-21.15 235.07,-98.96 l 1.59,-2.05 2.24,1.69 c 97.88,67.87 183.68,90.03 254,90.03 v 2.24 l -0.2,-2.18 0.2,-0.06 v 2.24 l -0.2,-2.18 0.2,-0.06 c 123.61,0 199.36,-68.49 209.7,-78.42 l 2.48,-2.44 1.94,2.92 -2.35,1.64 2.01,2.01 c -11.02,10.47 -87.9,80.02 -213.78,80.02 v -2.83 l 0.34,2.83 h -0.34 c -71.57,0.05 -158.47,-22.62 -257.42,-91.12 l 1.63,-2.31 2.35,1.77 c -66.96,79.51 -159.6,100.88 -239.46,100.88 h -0.2 l 0.2,-2.82 v 2.82 c -39.53,0 -76.03,-5.25 -104.86,-11.18 l 0.66,-2.83 0.94,-2.72 146.1,47.45 -2.9,2.18 -0.13,-2.89 c 69.94,-5.92 148.3,-29.62 200.32,-98.19 l 1.8,-2.13 2.09,1.62 c 98.49,68.62 184.34,90.87 254.74,90.87 66.23,0 118.64,-19.82 154.6,-39.73 17.85,-9.96 31.7,-19.96 41.06,-27.32 4.6,-3.73 8.18,-6.85 10.46,-8.9 2.27,-2.16 3.37,-3.38 3.37,-3.38 l 2.7,-2.6 247.72,387.39 20.73,6.75 -277.14,-424.14 2.41,-1.5 2.01,2.01 -2.01,-2.01" /><path
         id="path22"
         style="fill:#ffffff;fill-opacity:1;fill-rule:nonzero;stroke:none"
         d="m 3079.01,4214.25 -259.65,-397.37 c -10.53,10.19 -87.12,79.27 -211.77,79.27 -70.88,0 -157.32,-22.43 -255.79,-90.68 -57.76,68.64 -134.93,93.55 -206.54,98.71 l -187.87,-62.47 c 59.34,18.31 267.23,68.54 388.4,-77.1 285.34,198.79 467.78,11.03 467.78,11.03 l 291.13,447.2 -25.69,-8.59" /><path
         id="path24"
         style="fill:#231f20;fill-opacity:1;fill-rule:nonzero;stroke:none"
         d="m 3079.01,4214.25 -2.27,1.64 -259.79,-397.51 2.41,-1.5 2.01,2.01 c -11.02,10.47 -87.9,80.05 -213.78,80.05 v -2.79 l 0.13,2.79 h -0.13 c -71.53,0.08 -158.47,-22.65 -257.39,-91.12 l 1.6,-2.35 2.3,1.81 c -58.45,69.38 -136.59,94.57 -208.47,99.78 l -0.68,0.08 -185.6,-61.53 0.35,-6.09 c 26.9,8.22 83.19,22.74 149.33,22.74 78.94,0 169.48,-21.18 234.51,-99.46 l 1.67,-2.01 2.37,1.54 c 98.29,68.48 184.07,90.64 254.16,90.64 66.45,0 118.65,-19.84 154.61,-39.71 18.12,-9.88 31.88,-19.87 41.03,-27.32 4.61,-3.7 8.21,-6.76 10.68,-8.89 2.29,-2.17 3.39,-3.39 3.39,-3.39 l 2.61,-2.6 297.6,457.12 -34.37,-11.56 -0.55,-0.73 2.27,-1.64 1.11,-2.62 17.69,5.91 -286.72,-440.34 2.48,-1.56 2.14,2 c -0.21,0.27 -78.84,81.13 -213.97,81.13 -71.4,0 -158.55,-22.67 -257.52,-91.76 l 1.57,-2.4 2.25,1.89 c -66.5,79.98 -159.19,101.44 -239.01,101.44 -66.96,0 -122.43,-13.98 -149.68,-22.33 l 0.35,-2.44 v -3.65 l 186.64,61.97 -1.08,2.69 -0.13,-2.83 c 70.95,-5.2 147.33,-29.87 204.56,-97.77 l 1.58,-2.04 2.32,1.64 c 97.93,67.9 183.68,89.98 254,89.98 v 1.61 -1.61 1.61 -1.61 c 123.61,0 199.36,-68.49 209.7,-78.32 l 2.48,-2.44 261.77,400.33 -2.53,1.52 1.11,-2.62 -1.11,2.62" /><path
         id="path26"
         style="fill:#ffffff;fill-opacity:1;fill-rule:nonzero;stroke:none"
         d="m 3089.81,4199.91 -276.24,-424.27 c 0,0 -182.44,187.76 -467.82,-11.03 -57.64,69.43 -135.12,94.16 -206.86,99.2 l -182.22,-64.36 c 34.74,11.85 268.88,84.54 400.53,-73.57 285.42,198.64 468.07,11.26 468.07,11.26 l 313.46,480.14 -48.92,-17.37" /><path
         id="path28"
         style="fill:#231f20;fill-opacity:1;fill-rule:nonzero;stroke:none"
         d="m 3089.81,4199.91 -2.47,1.51 -276.25,-424.14 2.48,-1.64 2.14,1.96 c -0.21,0.31 -78.84,81.17 -213.97,81.17 -71.32,0 -158.55,-22.59 -257.57,-91.68 l 1.58,-2.48 2.33,1.89 c -58.37,70.17 -136.73,95.1 -208.97,100.14 l -0.51,0.08 -179.28,-63.37 v -5.67 c 17.22,5.86 82.15,25.85 160.64,25.85 78.96,0 169.75,-21.06 234.86,-99.46 l 1.8,-2.09 2.09,1.42 c 98.64,68.77 184.34,90.85 254.74,90.85 66.23,0 118.64,-19.73 154.6,-39.68 17.85,-9.8 31.7,-19.65 41.06,-27.09 4.6,-3.8 8.18,-6.8 10.46,-9.01 2.27,-2.12 3.37,-3.25 3.37,-3.25 l 2.7,-2.77 320.17,490.36 -57.92,-20.51 -0.55,-0.88 2.47,-1.51 1.11,-2.69 40.74,14.46 -308.92,-473.01 2.53,-1.53 2.08,2.05 c -0.34,0.11 -78.99,80.91 -213.9,80.91 -71.59,0 -158.77,-22.75 -258.06,-91.82 l 1.81,-2.4 2.23,1.81 c -66.69,80.13 -159.55,101.67 -239.47,101.67 -79.49,-0.03 -143.08,-19.95 -160.64,-26.01 v -5.67 l 180.53,63.49 -0.96,2.64 -0.23,-2.81 c 71.33,-5.2 147.87,-29.48 204.87,-98.2 l 1.74,-2.05 2.31,1.53 c 98.29,68.53 184.04,90.69 254.16,90.69 66.45,0 118.65,-19.79 154.61,-39.71 18.12,-9.91 31.88,-19.79 41.03,-27.23 4.61,-3.79 8.21,-6.89 10.68,-9.03 2.29,-2.12 3.39,-3.34 3.39,-3.34 l 2.61,-2.63 278.24,427.36 -2.49,1.52 1.11,-2.69 -1.11,2.69" /><path
         id="path30"
         style="fill:#231f20;fill-opacity:1;fill-rule:evenodd;stroke:none"
         d="m 547.078,1779.59 c 85.75,39.6 139.621,70.6 193.606,-35.32 33.472,-65.68 35.074,-106.97 -39.317,-142.23 l -49.047,-23.57 -45.39,-21.63 c -12.66,-6.16 -24.582,-12.31 -37.196,-18.38 l -47.218,93.42 c 3.289,1.47 6.191,2.71 7.773,3.26 5.297,2.76 17.484,8.09 35.594,16.56 l 38.66,18.22 51.301,24.41 68.164,32.59 9.582,4.71 c -2.274,6.5 -3.375,8.83 -5.992,13.7 -31.055,60.92 -61.285,73.14 -124.16,47.56 -21.09,-8.24 -36.52,-15.46 -71.422,-31.93 -18.407,-8.74 -36.453,-17.94 -54.004,-26.96 0,-0.57 -0.907,-0.79 -0.907,-0.79 -4.875,-2.3 -9.566,-1.58 -11.492,2.74 -1.711,3.63 0,7.22 4.676,9.38 25.274,12.17 51.453,23.14 76.789,34.26" /><path
         id="path32"
         style="fill:#231f20;fill-opacity:1;fill-rule:evenodd;stroke:none"
         d="m 547.078,1869.33 8.199,2.62 39.664,13.29 c 15.25,4.89 30.262,10.54 46.02,15.61 4.609,1.32 8.133,2.37 9.699,3.54 4.824,1.32 9.102,0.94 10.828,-4.33 1.438,-4.09 -0.492,-7.16 -6.699,-9.34 h -0.543 c -37.176,-11.84 -75.277,-22.49 -112.449,-34.35 -10.473,-3.15 -25.488,-8.07 -45.543,-15.05 -41.723,-13.25 -47.93,-15.34 -72.578,-24.16 14.461,61.34 28.32,123.04 40.898,185.06 l 11.016,54.48 c -11.356,-3.75 -20.563,-6.18 -28,-8.68 -21.098,-6.65 -42.055,-14.01 -63.59,-20.79 -5.305,-1.51 -9.254,-2.9 -11.047,-3.82 -4.941,-1.52 -11.492,-3.56 -13.223,2.44 -1.609,4.79 -0.179,6.84 7.825,9.46 l 31.328,10.07 39.254,11.32 c 21.812,6.52 38.968,11.77 52.14,16.14 36.141,11.62 71.688,24.34 107.434,35.38 -19.977,-79.1 -36.289,-159.39 -50.633,-238.89" /><path
         id="path34"
         style="fill:#231f20;fill-opacity:1;fill-rule:evenodd;stroke:none"
         d="m 576.484,2161.63 -13.418,-2.23 c -54.199,-10.78 -108.535,-21.32 -163.375,-32.6 l -49.308,-10.48 -8.961,-2.01 -21.895,101.78 11.657,2.42 49.425,9.32 58.43,11.69 52.801,10.87 54.219,11.16 8.531,1.89 21.894,-101.81" /><path
         id="path36"
         style="fill:#231f20;fill-opacity:1;fill-rule:evenodd;stroke:none"
         d="m 294.895,2550.9 c 1.566,-0.73 3.882,-1.98 8.296,-4.13 l 192.731,-81.71 52.262,-22.97 -173.223,-118.23 -70.316,-48.41 -11.133,118.56 132.656,88.87 -61.332,25.26 c -24.941,10.61 -51.023,18.92 -75.457,29.39 -10.965,3.82 -13.223,5.28 -13.781,9.67 -0.379,3.83 2.289,7.51 6.554,7.96 1.891,0 4.922,-0.64 12.743,-4.26" /><path
         id="path38"
         style="fill:#231f20;fill-opacity:1;fill-rule:evenodd;stroke:none"
         d="m 528.164,2811.04 -0.234,-5.14 -9.004,-193.23 -127.699,6.65 c -37.52,1.59 -74.735,1.83 -112.141,3.41 l 8.363,179.94 0.531,9.09 c 0.575,5.98 2.504,8.36 6.915,8.16 4.48,-0.16 6.191,-2.23 5.843,-8.44 v -0.44 l -5.187,-84.99 54.832,-2.92 0.144,4.13 2.618,87.12 c 0.347,9.15 2.027,11.11 6.867,10.75 4.711,0 6.289,-2.74 5.746,-10.75 -0.563,-16.43 -2.141,-33.34 -3.016,-49.59 l -1.726,-38.23 v -4.04 c 10.257,-0.64 20.152,-1.03 30.211,-1.68 l 120.82,-4.25 3.484,97.99 c 0.367,8.02 2.012,10.55 6.836,10.27 5.235,0 6.125,-1.6 5.797,-13.81" /><path
         id="path40"
         style="fill:#231f20;fill-opacity:1;fill-rule:evenodd;stroke:none"
         d="m 347.633,3066.89 c -8.102,-15.6 -13.668,-32.3 -19.645,-59.98 l 9.828,-2.17 57.676,-11.33 48.75,-8.76 31.153,-5.4 c 1.71,-0.31 3.507,-0.67 7.902,-1.31 11.027,7.24 13.5,9.17 22.871,18.5 1.102,3.63 1.465,5.65 1.793,7.89 9.582,50.12 -19.84,95.21 -67.965,103.95 -36.848,6.46 -74.933,-10.47 -92.363,-41.39 m 170.93,-18.93 c 3.39,-13.37 3.804,-20.09 1.792,-37.65 19.977,20.4 34.727,43.71 45.661,69.21 1.312,3.41 3.386,4.93 6.289,4.36 3.492,-0.45 5.429,-4.05 4.394,-8.39 -6.406,-33.87 -52.058,-77.09 -77.613,-100.06 l 52.965,-9.33 -19.145,-101.75 -7.593,1.43 -56.336,9.99 -67.508,12.7 -53.836,9.35 -45.082,7.64 -5.664,0.64 12.859,67.51 c 11.16,60.25 19.145,86.17 32.106,105.35 22.113,31.48 61.625,47.09 101.109,40.24 35.594,-6.27 66.926,-35.68 75.602,-71.24" /><path
         id="path42"
         style="fill:#231f20;fill-opacity:1;fill-rule:evenodd;stroke:none"
         d="m 622.223,3215.93 c -8.547,-25.27 -24.512,-46.31 -47.66,-60.92 -9.227,-5.99 -14.739,-7.97 -18.793,-6.92 -3.028,1.06 -5.165,4.35 -4.278,6.92 1.992,5.92 43.942,18.01 58.281,60.92 4.055,12.36 2.34,20.07 -5.46,22.64 -32.918,10.19 -118.165,-67.51 -180.09,-47.91 -40.75,12.64 -57.922,59.35 -40.75,111.25 7.605,22.49 19.246,40.55 34.476,52.63 8.184,6.34 16.117,9.6 19.887,8.71 2.637,-1.13 4.316,-3.65 3.18,-7.06 -1.02,-3.18 -34.036,-19.01 -44.621,-50.45 -3.157,-11 -0.54,-19.87 7.46,-22.52 32.141,-9.98 125.543,68.24 181.868,50.79 40.586,-12.81 55.433,-60.17 36.5,-118.08" /><path
         id="path44"
         style="fill:#231f20;fill-opacity:1;fill-rule:evenodd;stroke:none"
         d="m 667.336,3361.87 -12.184,5.33 c -50.609,21.26 -101.668,43.29 -152.476,64.86 l -46.758,18.62 -8.695,3.42 42.828,95.45 11.027,-4.65 45.676,-19.87 55.086,-23.11 49.375,-20.67 50.828,-20.95 8,-3.17 -42.707,-95.26" /><path
         id="path46"
         style="fill:#231f20;fill-opacity:1;fill-rule:evenodd;stroke:none"
         d="m 614.781,3745.29 c -11.015,-10.35 -19.347,-22.24 -26.574,-35.26 l 73.481,-41.18 c 25.339,-14.49 44.078,-24.79 55.929,-31.45 10.473,-5.79 29.949,-16.25 59.238,-31.89 17.485,28.86 27.266,60 17.485,93.26 -8.328,25.92 -26.391,48.37 -50.824,62.1 -40.567,22.64 -94.422,16.18 -128.735,-15.58 m 177.637,-135.65 -14.543,-24.75 -44.285,-74.53 c -43.168,24.2 -76.184,43.01 -100.199,56.36 -28.848,15.94 -53.875,29.27 -108.078,58.83 l 45.886,77.43 c 19.481,32.61 28.305,44.16 43.582,57.03 36.11,30.07 93.141,33.26 134.25,10.39 60.727,-33.82 76.645,-102.09 43.387,-160.76" /><path
         id="path48"
         style="fill:#231f20;fill-opacity:1;fill-rule:evenodd;stroke:none"
         d="m 815.074,3889.31 3.227,-8.98 18.402,-45.45 15.563,-37.87 3.179,-6.34 c 21.813,27 65,80.05 65,80.05 z m 154.633,-27.4 -35.762,6.73 -73.757,-91 9.085,-21.96 c 2.485,-4.61 7.985,-12.65 4.067,-16.97 -1.93,-3.12 -5.172,-3.77 -7.656,-2.13 -5.977,4.56 -18.047,40.67 -22.309,50.35 l -30.098,75.85 -32.57,81.14 c -7.238,18.36 -14.883,37.29 -22.863,55.52 l 286.926,-44.69 -75.063,-92.84" /><path
         id="path50"
         style="fill:#231f20;fill-opacity:1;fill-rule:evenodd;stroke:none"
         d="m 1026.16,4238.21 c -13.63,-6.66 -24.58,-15.84 -35.738,-26.25 l 58.278,-59.75 c 20.17,-20.58 35.24,-35.91 44.61,-45.44 8.34,-8.38 24.11,-24.16 47.66,-46.84 24.81,23.15 42.85,50.12 43.73,84.46 0,27.25 -10.8,53.49 -30.64,73.63 -32.24,32.83 -85.55,41.51 -127.9,20.19 m 130.72,-178.54 -21.41,-19.81 -64.47,-59.47 c -33.82,35.18 -60.05,62 -79.199,81.64 -22.785,23.12 -43.188,43.09 -86.571,86.17 l 66.926,61.84 c 28.194,26 40.024,34.29 58.074,42.33 43.73,19.24 99.39,6.37 132.16,-26.53 48.16,-49.21 43.53,-119.07 -5.51,-166.17" /><path
         id="path52"
         style="fill:#231f20;fill-opacity:1;fill-rule:evenodd;stroke:none"
         d="m 1479.97,4561.7 c -17.42,-10.11 -33.9,-18.8 -51.17,-29.13 l 4.54,-8.07 23.76,-37.58 26.59,-43.51 33.95,-54.03 c 15.08,-22.34 23.41,-36.29 26.03,-40.44 0.77,-1.13 2.01,-3.03 3.4,-4.95 l -91.22,-54.05 c -10.8,17.04 -21.27,34.39 -31.88,51.81 l -40.01,63.65 -25.69,39.45 -21.64,33.31 c -17.35,-10.2 -33.92,-21.61 -51.17,-31.65 -5.42,-3.3 -8.46,-2.89 -10.73,0.51 -2.52,3.84 -1.31,6.66 4.41,9.92 l 3.54,2.66 157.2,92.86 26.8,16.02 6.2,3.21 c 6.2,3.44 9.02,3.44 11.64,-0.72 2.12,-2.9 0.89,-5.86 -4.55,-9.27" /><path
         id="path54"
         style="fill:#231f20;fill-opacity:1;fill-rule:evenodd;stroke:none"
         d="m 1832.25,4478.29 -4.62,-1.79 -182.85,-78.86 -50.76,113.54 c -15.64,32.72 -32.22,65.2 -47.32,98.18 l 170.06,73.48 8.81,3.86 c 5.85,1.94 8.74,1.58 10.46,-2.61 1.81,-3.96 0.7,-6.29 -4.95,-8.54 l -0.68,-0.41 -80.93,-33.23 21.6,-48.95 4.22,1.72 81.81,36.45 c 8.68,3.82 11.16,3.62 13.31,-0.42 1.79,-4.71 0.19,-7.24 -7.79,-10.56 -15.43,-6.59 -31.66,-12.66 -47.11,-19.43 l -35.94,-15.53 -3.72,-1.69 c 3.72,-9.18 7.57,-18.14 12.04,-27.23 l 50.06,-106.22 92.17,40.74 c 7.44,3.34 10.73,3.17 12.35,-1.13 2.25,-4.72 1,-5.95 -10.22,-11.37" /><path
         id="path56"
         style="fill:#231f20;fill-opacity:1;fill-rule:evenodd;stroke:none"
         d="m 2072.02,4579.88 c -15.58,-26.24 -44.28,-48.13 -73.34,-56.71 -68.29,-19.39 -139.02,17.39 -159.19,83.01 -20.06,64.55 18.73,133.25 84.9,152.4 37.58,10.62 78.84,4.78 108.77,-15.74 5.38,-3.77 8.72,-6.24 9.25,-8.82 0.94,-2.31 -1.03,-5.14 -3.41,-5.72 -3.34,-0.94 -5.48,-0.21 -10.39,3.41 -28.35,21.67 -67.65,26.59 -101.6,16.78 -5.45,-1.31 -7.01,-2.21 -11.56,-4.73 l 1.96,-6.72 13.79,-46.62 16.67,-55.67 c 3.82,-12.1 8.96,-28.93 15.76,-49.59 l 14.84,-47.04 2.3,-7.72 c 7.44,1.35 10.6,1.35 14.29,2.72 40.98,11.49 70.77,44.65 79.8,86.5 1.37,5.58 2.82,7.38 4.74,8.02 3.54,0.94 6.51,-0.26 7.43,-2.44 2.11,-6.5 -5.47,-28.93 -15.01,-45.32" /><path
         id="path58"
         style="fill:#231f20;fill-opacity:1;fill-rule:evenodd;stroke:none"
         d="m 2139.45,4682.15 1.59,-8.29 6.94,-40.05 c 2.08,-15.59 6.01,-30.6 8.17,-46.46 0.87,-4.76 1.46,-8.36 1.86,-10.04 0.73,-4.78 -0.11,-8.83 -5.99,-9.62 -4.4,-0.62 -7.07,1.81 -8.17,7.95 v 0.74 c -5.65,37.21 -10.6,75.2 -16.45,112.8 -1.61,10.34 -3.85,25.72 -8.08,45.94 -6.57,41.84 -7.48,48.4 -12.68,73.43 60.26,-24.22 120.83,-47.4 181.96,-69.81 l 53.83,-19.36 c -1.45,11.47 -2.84,20.73 -4.04,28.17 -3.4,21.17 -7.24,42.36 -10.65,64.16 -0.92,5.24 -1.43,9.06 -2.15,11.21 -0.88,4.7 -1.72,11.39 4.63,12.22 4.96,0.64 7.07,-0.87 8.45,-9.18 l 4.86,-31.37 5.12,-39.43 c 3.11,-21.7 5.99,-39.77 7.97,-52.69 5.62,-36.06 12.77,-72.34 18.47,-108.34 -77.48,32.17 -156.23,61.17 -235.64,88.02" /><path
         id="path60"
         style="fill:#231f20;fill-opacity:1;fill-rule:evenodd;stroke:none"
         d="m 2543.8,4838.71 c -5.66,-0.08 -7.09,-0.72 -12.43,-1.18 0,-40.01 0,-80.2 0.6,-120.46 0,-18.7 0.13,-34.87 0.78,-47.25 l 1.01,-35.12 0.38,-20.79 c 4.67,-0.79 6.7,-0.73 11.03,-0.73 67.12,0.73 118.55,51.01 117.51,114.89 -0.55,62.29 -53.22,110.97 -118.88,110.64 m 2.61,-235.72 c -68.27,-0.74 -126.62,54.93 -127.13,121.62 -1.07,68.64 55.65,123.64 126.48,124.3 69.94,0.7 127.74,-54.36 128.41,-121.71 0.9,-68.05 -55.63,-123.62 -127.76,-124.21" /><path
         id="path62"
         style="fill:#231f20;fill-opacity:1;fill-rule:evenodd;stroke:none"
         d="m 2934.52,4582.71 -4.63,0.28 -182.42,21.88 -21.98,2.62 c 3.16,21.12 6.06,42.11 9.09,63.58 l 5.31,39.39 7.99,61.77 5.77,49.54 2.13,15.81 106.5,-12.78 c -4.08,-30.44 -8.9,-61.78 -13.51,-92.43 l -4.54,-40.06 -6.07,-46.97 -4.4,-39.5 4.05,-0.3 39.35,-4.82 c 19.27,-1.96 38.07,-3.56 57.02,-5.86 4.21,-0.18 10.81,-1.16 9.9,-7.17 -0.32,-4.7 -2.46,-5.71 -9.56,-4.98" /><path
         id="path64"
         style="fill:#231f20;fill-opacity:1;fill-rule:evenodd;stroke:none"
         d="m 3156.78,4766.79 c -5.45,1.59 -7.03,1.85 -12.21,2.26 -11.15,-38.53 -22.16,-77.25 -32.62,-116.05 -5.11,-18.3 -9.37,-33.82 -12.4,-45.66 l -8.63,-33.88 -5.51,-20.46 c 4.63,-2.25 6.19,-2.6 10.82,-3.85 64.81,-16.63 128.03,18.89 144.9,80.66 16.27,60.35 -20.79,120.73 -84.35,136.98 m -62.35,-227.83 c -66.25,17 -106.95,85.62 -89.03,150.22 17.9,66.37 87.41,104.78 156.2,87.16 67.62,-17.43 108.05,-85.13 89.92,-150.32 -17.67,-66.02 -87.46,-104.74 -157.09,-87.06" /><path
         id="path66"
         style="fill:#231f20;fill-opacity:1;fill-rule:evenodd;stroke:none"
         d="m 3372.13,4447.78 c -64.47,26.74 -94.34,99.26 -66.41,163.01 26.96,60.79 102.7,89.34 166.48,63.05 32.9,-13.48 58.61,-40.08 71.09,-73.15 3.31,-9.83 4.75,-15.33 3.17,-18.64 -1.05,-2.69 -4.83,-3.46 -7.87,-1.94 -2.63,0.92 -4.39,2.66 -5.29,7.8 -9.37,36.7 -32.38,62.98 -65.69,76.79 -4.78,1.98 -7.12,2.53 -12.77,4.33 l -2.95,-6.98 -19.83,-44.09 -23.78,-53.61 -21.27,-47.99 -18.73,-44.89 -3.59,-7.83 c 4.08,-3.36 6.01,-4.22 11.37,-6.33 56,-23.03 121.63,-0.79 148.55,50.32 l -75.74,31.2 c -5.38,2.24 -10.83,4.54 -15.99,6.85 -6.18,2.38 -7.37,4.72 -5.64,8.41 1.37,3.43 4.26,4.25 9.56,1.87 l 16.25,-6.44 87,-35.96 c -29.55,-64.84 -101.87,-93.1 -167.92,-65.78" /><path
         id="path68"
         style="fill:#231f20;fill-opacity:1;fill-rule:evenodd;stroke:none"
         d="m 3536.88,4380.5 7.1,10.99 c 27.06,46.82 55.02,93.01 82.48,140.26 l 24.33,43.14 4.38,7.65 93.36,-51.25 -5.85,-10.01 -25.28,-42.08 -29.42,-50.29 -26.58,-45.45 -26.93,-46.45 -4.06,-7.76 -93.53,51.25" /><path
         id="path70"
         style="fill:#231f20;fill-opacity:1;fill-rule:evenodd;stroke:none"
         d="m 3864.71,4207.96 c -31,-4.26 -66.59,3.99 -91.39,21.25 -57.74,40.11 -71.02,117.13 -29.62,172.57 40.43,54.74 120.45,67.19 176.58,28.37 31.76,-22.18 52.29,-57.13 53.9,-93.13 0.52,-6.29 0,-10.04 -1.61,-12.34 -1.04,-1.82 -4.95,-2.31 -6.89,-0.73 -2.89,1.94 -3.17,3.82 -3.17,9.88 0,35.05 -20.05,68.23 -49.11,88.25 -4.46,3.11 -5.85,3.9 -10.8,6.01 l -4.28,-5.64 -29.68,-39.18 -35.12,-47.13 c -7.45,-10.01 -18.19,-24.34 -30.99,-42.34 l -29.4,-39.96 -4.99,-6.84 c 5.85,-4.88 8.21,-6.93 11.17,-9.18 34.56,-24.21 79.72,-26.75 119.93,-8.01 5.28,2.44 7.41,2.82 9.33,1.2 2.9,-1.8 3.94,-4.96 2.34,-6.72 -4.26,-5.71 -26.72,-13.48 -46.2,-16.33" /><path
         id="path72"
         style="fill:#231f20;fill-opacity:1;fill-rule:evenodd;stroke:none"
         d="m 4050.66,4194.46 -9.57,-2.23 -48.36,-13.53 -40.54,-10.88 -7.32,-2.34 c 26.11,-23.97 76.8,-70.53 76.8,-70.53 z m -42.71,-146.11 9.59,33.54 -86.3,79.95 -23.14,-6.74 c -4.96,-1.8 -13.87,-6.49 -18.05,-2.26 -2.83,2.26 -3.22,5.64 -1.45,7.54 5.32,5.27 43.62,13.85 54.01,16.61 l 81.13,21.69 86.44,23.55 c 19.48,5.34 40.21,10.81 59.35,16.41 l -73.9,-271.85 -87.68,81.56" /><path
         id="path74"
         style="fill:#231f20;fill-opacity:1;fill-rule:evenodd;stroke:none"
         d="m 4491.3,3817.11 c -4.59,14.14 -12.19,26.57 -20.5,38.89 l -71.36,-45.26 c -24.66,-15.46 -42.36,-27.04 -53.86,-34.56 -9.98,-6.46 -28.59,-18.94 -55.85,-37.03 19.15,-27.91 43.44,-49.87 78.3,-56.52 27.82,-4.33 56.67,0.94 80.23,16.4 38.99,24.92 57.1,74.43 43.04,118.08 m -204.76,-93.16 -16.44,23.81 -49.25,71.52 c 41.68,26.38 73.51,46.65 96.75,61.4 27.77,18.06 51.34,33.54 102.84,67.42 l 51.38,-74.19 c 21.4,-31.21 28.39,-44.32 32.78,-62.86 12.05,-44.98 -10.47,-95.84 -49.79,-121.31 -58.41,-37.58 -128.95,-20.89 -168.27,34.21" /><path
         id="path76"
         style="fill:#231f20;fill-opacity:1;fill-rule:evenodd;stroke:none"
         d="m 4468.45,3403.26 -2.14,5 -87.68,173.75 115.7,53.33 c 33.48,15.56 66.76,32.52 100.06,48.51 l 81.29,-161.91 4.47,-8.4 c 2.11,-5.48 1.74,-8.37 -2.13,-10.21 -4.26,-1.77 -6.6,-0.85 -9.04,4.73 l -0.54,0.34 -37.18,77.15 -49.67,-22.68 2,-4.02 40.37,-77.48 c 4.42,-8.38 3.93,-11.05 -0.36,-12.71 -4.46,-2.16 -7.08,-0.44 -10.92,7.16 -7.25,14.49 -14.16,29.77 -21.64,44.8 l -17.72,34.29 -1.43,3.54 c -9.37,-4.08 -18.45,-8.28 -27.41,-12.67 l -108.62,-52.13 45.55,-87.77 c 3.5,-6.75 3.5,-9.91 -0.91,-11.94 -4.75,-2.3 -6.19,-1.15 -12.05,9.32" /><path
         id="path78"
         style="fill:#231f20;fill-opacity:1;fill-rule:evenodd;stroke:none"
         d="m 4795.46,3081.55 c 7.22,24.87 1.37,53.83 -5.04,78.48 l -11.29,-2.47 -59.72,-13.81 -51.51,-11.59 c -15.57,-3.62 -30.15,-7.25 -45.53,-11.36 -0.48,-8.83 1.23,-21.26 4.63,-34.48 12,-47.67 58.25,-74.55 106.96,-63.16 27.67,6.36 54.19,31.96 61.5,58.39 m -179.76,4.77 c -2.57,10.11 -3.59,21.3 -5.04,31.74 -13.78,-3.32 -27.82,-6.94 -41.6,-10.25 l -25.47,100.86 10.26,2.52 67.83,15.24 60.89,14.02 48.77,12.08 38.41,9.37 7.03,1.61 18.82,-75.29 c 8.33,-33.69 13.28,-59.68 14.52,-79.21 2.16,-44.09 -29.41,-86.06 -74.22,-97.11 -55.27,-12.92 -106.28,18.34 -120.2,74.42" /><path
         id="path80"
         style="fill:#231f20;fill-opacity:1;fill-rule:evenodd;stroke:none"
         d="m 4755.01,2875.56 -8.81,4.5 -45.72,20.51 -38.1,17.24 -6.88,2.85 c 3.16,-34.35 9.91,-101.69 9.91,-101.69 z m -131.73,-82.9 30.44,18.82 -11.51,115.25 -21.42,9.82 c -5.5,1.51 -15.08,3.9 -15.64,9.96 -0.33,2.96 1.46,6.02 4.08,6.1 7.63,0.71 42.57,-17.24 52.13,-21.47 l 75.96,-35.13 81.47,-37 c 18.26,-8.52 37.54,-17.25 55.95,-25.29 l -240.17,-158.6 -11.29,117.54" /><path
         id="path82"
         style="fill:#231f20;fill-opacity:1;fill-rule:evenodd;stroke:none"
         d="m 4748.82,2624.94 -8.47,0.59 -42.15,1.05 c -15.98,1.04 -32.23,0.6 -48.55,1.32 -5.15,0.28 -8.86,0.58 -10.47,0.28 -5.52,0.3 -9.15,1.94 -8.64,7.8 0,4.2 2.85,6.4 9.55,5.87 h 0.7 c 38.95,-1.52 78.43,-4.61 117.48,-6.59 11.08,-0.41 27.05,-1.37 48.49,-1.78 43.59,-1.89 50.26,-2.27 76.71,-2.4 -36.38,-52.32 -71.89,-105.15 -106.47,-158.7 l -30.67,-46.96 c 12.26,-0.87 21.85,-1.52 29.42,-1.93 22.33,-0.87 44.64,-1.31 66.95,-2.3 5.49,-0.26 9.91,-0.46 11.84,-0.26 5.31,-0.2 12.06,-0.54 11.92,-6.64 -0.35,-5.27 -2.69,-6.78 -10.95,-6.33 l -33.22,1.58 -40.83,2.96 c -22.51,1.22 -41.11,2.18 -55.08,2.83 -37.61,1.73 -75.69,2.16 -113.25,4.01 47.82,66.99 92.87,136.07 135.69,205.6" /><path
         id="path84"
         style="fill:#231f20;fill-opacity:1;fill-rule:evenodd;stroke:none"
         d="m 4739.94,2270.74 -7.03,6.42 -37.75,32.39 -31.46,26.64 -5.73,4.54 c -6.87,-33.89 -20.02,-100.12 -20.02,-100.12 z m -150.14,-44.23 34.5,10.2 22.87,113.16 -18.24,15.31 c -4.63,3.25 -13.09,7.71 -11.86,13.84 0.56,3.33 3.17,5.39 5.84,5.06 7.45,-1.65 35.62,-27.87 43.55,-34.74 l 62.73,-54.55 67.32,-57.36 c 15.07,-13.3 30.61,-26.95 46.54,-39.53 l -276.44,-86.85 23.19,115.46" /><path
         id="path86"
         style="fill:#231f20;fill-opacity:1;fill-rule:evenodd;stroke:none"
         d="m 4485.65,1886.35 128.04,-10.78 -77.07,102.1 123.27,32.82 c -25.81,18.29 -52.18,36.63 -79.32,52.11 -7.57,5.2 -26.18,12.34 -21.97,23.4 1.59,5.01 4.42,6.79 7.44,5.4 5.31,-1.64 10.59,-6.97 15.09,-10.53 l 30.98,-22.41 54.35,-38.64 49.59,-35.78 45.71,-32.5 10.62,-7.39 -164.33,-40.88 98.83,-130.74 -9.98,0.8 -50.38,3.74 -76.01,5.09 -60.26,3.6 -54.55,3.41 -7.22,0.56 37.17,96.62" /><path
         id="path88"
         style="fill:#231f20;fill-opacity:1;fill-rule:evenodd;stroke:none"
         d="m 4512.61,1624 -4.63,8.31 -25.36,42.63 -20.92,35.07 -3.86,5.97 c -17.71,-30 -52.29,-88.74 -52.29,-88.74 z m -157.18,5.14 36.38,-1.44 58.93,100.45 -12.18,20.16 c -3.59,4.46 -9.78,11.57 -6.74,16.82 1.56,2.69 4.61,4.07 7.08,2.69 6.55,-3.55 24.65,-37.36 29.98,-46.56 l 41.37,-70.59 44.63,-75.49 c 10.26,-17.01 20.6,-34.92 30.99,-51.76 l -290.65,2.96 60.21,102.76" /><path
         id="path90"
         style="fill:#231f20;fill-opacity:1;fill-rule:evenodd;stroke:none"
         d="m 2196.29,343.738 c 2.03,12.953 4.26,26.594 6.62,39.242 l 8.69,53.54 7.51,46.16 7.64,49.281 1.38,7.23 c -12.5,-1.429 -24.94,-6.351 -37.12,-4.519 -2.97,0.328 -4.99,3.09 -4.27,6.578 0.92,5.469 1.96,5.469 19.86,7.031 20.38,3.36 41.78,5.449 62.36,6.828 l 62.87,7.922 c -2.61,-13.57 -4.63,-26.34 -7.07,-39.941 l -6.95,-43.43 c -5.35,-34.91 -10.27,-69.859 -15.41,-104.648 l -5.33,-39.75 -0.51,-5.742 -100.27,14.218" /><path
         id="path92"
         style="fill:#231f20;fill-opacity:1;fill-rule:evenodd;stroke:none"
         d="m 2443.75,310.469 c -26.59,1.312 -50.53,13.679 -62.37,31.441 -1.59,2.82 -3.11,6.449 -3.11,8.68 0,4.16 4.03,7.082 8.81,6.922 9.75,-0.403 9.88,-34.231 58.96,-36.422 5.33,-0.281 7.82,0 14.67,0.949 l 0.13,5.473 2.76,47.429 3.35,58.368 2.65,51.773 1.96,49.27 0.13,8.359 c -2.95,0.199 -5.4,0.719 -6.36,0.719 -48.85,2.312 -90.88,-32.45 -93.28,-81.77 -1.65,-29.07 20.76,-54.058 48.7,-55.379 7.24,-0.34 16.27,1.61 22.64,4.52 5.68,2.508 6.93,2.949 8.36,2.949 2.83,0 4.41,-2.109 4.41,-5.051 -0.71,-10.269 -27.1,-14.097 -36.12,-13.679 -34.92,1.75 -62.09,32.101 -60.26,67.929 2.46,54.18 49.94,93.781 109.16,91.133 65.84,-2.75 107.96,-53.48 104.29,-125.312 -3.4,-69.29 -61,-121.711 -129.48,-118.301" /><path
         id="path94"
         style="fill:#231f20;fill-opacity:1;fill-rule:evenodd;stroke:none"
         d="m 2690.85,370.609 c -25.56,10.672 -49.94,22.161 -73.14,36.34 -21.53,-11.789 -29.62,-22.41 -28.76,-37.937 1.37,-30.203 37.92,-49.723 88.4,-47.391 25.99,1.149 49.05,11.621 48.14,21.68 -0.15,8.57 -9.85,16.25 -34.64,27.308 m -17.01,173.621 c -27.35,-1.32 -46.43,-10.761 -45.74,-21.66 0.89,-21.91 76.69,-45.98 96.14,-54.261 18.94,11.902 25.35,20.953 24.46,38.132 -1.28,25.079 -29.55,39.957 -74.86,37.789 m 4.05,-233.89 c -57.77,-2.692 -99.48,21.66 -101.64,57.902 -0.74,19.278 8.81,33.289 32.24,46.86 -21.12,18.14 -30.08,34.839 -31.38,58.457 -2.52,44.23 40.73,79.211 100.93,81.961 49.79,2.082 82.57,-16.7 84.17,-49.778 0.76,-17.312 -6.57,-29.351 -25.21,-42.242 26.79,-15.668 45.59,-32.758 47.14,-64.59 2.32,-45.82 -45.84,-85.68 -106.25,-88.57" /><path
         id="path96"
         style="fill:#231f20;fill-opacity:1;fill-rule:evenodd;stroke:none"
         d="m 2864.96,331 c -2.25,12.941 -3.79,26.512 -5.39,39.398 l -7.77,53.032 -6.55,46.91 -7.09,49.469 -1.09,7.25 c -11.3,-5.137 -21.77,-13.297 -33.75,-14.977 -3.24,-0.41 -5.94,1.68 -6.19,5.137 -0.98,5.492 0.25,6.152 16.93,12.652 18.6,8.5 38.4,16.527 57.55,23.828 l 57.96,24.86 c 1.38,-13.5 3.15,-26.579 4.95,-39.95 l 6.53,-43.929 c 5.33,-34.871 11.02,-69.578 16.33,-104.481 l 6.74,-39.457 1.19,-5.793 L 2864.96,331" /><path
         id="path98"
         style="fill:#294936;fill-opacity:1;fill-rule:evenodd;stroke:none"
         d="m 4167.74,992.801 c -27.81,7.179 -66.24,-17.711 -66.24,-17.711 l -17.5,-0.43 c 27.61,29.06 54.69,59.6 80.71,91.58 80.59,-7.37 154.27,60.77 143.69,178.53 -162.97,-33.53 -165.29,-127.3 -160.14,-162.88 -35.26,-30.54 -69.08,-59.55 -102.42,-86.55 l 3.03,14.69 c 0,0 31.2,33.17 28.48,60.72 -2.93,27.56 -31.51,55.04 -28.48,77.12 2.69,21.96 17.01,44.15 17.01,44.15 0,0 -105.51,-46.95 -105.51,-107.58 0,-60.65 68.33,-82.79 68.33,-82.79 v -20.548 c -42.38,-34.5 -83.21,-66.27 -122.74,-95.403 v 0.231 c 0,0 31.49,33.179 28.87,60.672 -2.97,27.5 -31.54,55.048 -28.87,77.188 2.98,22.05 17.12,44.18 17.12,44.18 0,0 -105.49,-46.76 -105.49,-107.681 0,-60.641 68.52,-82.527 68.52,-82.527 v -6.871 C 3831.58,830.809 3779.73,795.539 3730.96,764.25 l 1.25,5.641 c 0,0 31.33,33.289 28.37,60.918 -2.69,27.511 -31.2,55.121 -28.37,76.941 2.66,22.281 16.99,44.512 16.99,44.512 0,0 -105.36,-47.18 -105.36,-107.602 0,-60.89 68.18,-82.91 68.18,-82.91 v -9.648 C 3658.36,718.52 3608.22,690.18 3561.33,665.91 l 2.62,13.211 c 0,0 31.19,33.078 28.35,60.57 -2.87,27.579 -31.13,55.028 -28.35,77.309 2.83,22.09 17.07,44.141 17.07,44.141 0,0 -105.59,-46.961 -105.59,-107.621 0,-60.75 68.55,-83.071 68.55,-83.071 v -13.457 c -64.47,-32.293 -122.26,-56.5 -174.47,-75.191 l 3.19,17.258 c 0,0 31.32,32.812 28.51,60.632 -2.83,27.598 -31.34,54.989 -28.51,76.86 2.83,22.488 17.21,44.59 17.21,44.59 0,0 -105.58,-47.09 -105.58,-107.481 0,-60.941 68.33,-83.051 68.33,-83.051 V 575.84 c -153.32,-52.961 -256.77,-58.149 -330.68,-84.66 -48.48,-24.782 14.19,-68.789 14.19,-68.789 21.96,-1.231 155.28,23.058 333.34,91.109 l 12.07,-11.621 c 0,0 -32.46,-62.359 11.69,-105.449 44.02,-43.168 153.19,-4.399 153.19,-4.399 0,0 -26.03,5.778 -44.49,19.598 -17.85,13.793 -17.71,52.961 -35.54,74.203 -18.25,21.379 -64.68,23.898 -64.68,23.898 l -15.64,10.418 c 54.21,21.332 112.68,46.731 172.93,76.661 l 17.15,-9.868 c 0,0 -15.76,-68.402 38.24,-99.461 53.65,-31.441 149.65,32.231 149.65,32.231 0,0 -26.87,-0.59 -48.17,8.68 -20.9,8.871 -30.79,46.461 -53.83,63.16 -22.98,16.531 -68.53,7.508 -68.53,7.508 l -16.8,6.351 c 51.32,26.149 104.41,55.891 157.79,88.602 l 20.67,-9.192 c 0,0 -7.73,-69.449 49.24,-95.101 56.75,-25.219 145.07,47.703 145.07,47.703 0,0 -26.54,-3.442 -48.52,3.476 -21.85,6.704 -35.63,43.364 -60.61,57.293 -24.38,14.411 -68.87,0.528 -68.87,0.528 l -21.22,5.191 c 57.38,36.649 114.76,77.02 170.67,122.11 l 22.67,-6.848 c 0,0 1.65,-69.512 61.69,-87.82 59.86,-17.633 137.41,66.117 137.41,66.117 0,0 -26.02,-6.699 -48.89,-2.75 -22.46,3.781 -41.05,38.461 -67.62,49.312 -26.4,10.399 -68.52,-8.609 -68.52,-8.609 l -22.2,2.437 c 46.08,37.59 91.04,78.352 134.29,122.43 l 20.18,-3.09 c 0,0 12.07,-68.75 73.84,-78.277 61.85,-9.422 126.32,84.129 126.32,84.129 0,0 -24.8,-10.141 -47.86,-9.262 -23.02,0.5 -46.71,32.231 -74.54,39.012" /><path
         id="path100"
         style="fill:#294936;fill-opacity:1;fill-rule:evenodd;stroke:none"
         d="m 2126.36,491.199 c -74.33,26.52 -177.61,31.641 -330.96,84.59 v 14.75 c 0,0 68.52,22.109 68.52,83.121 0,60.399 -105.59,107.531 -105.59,107.531 0,0 14.56,-22.121 17.37,-44.609 2.69,-21.902 -26.04,-49.281 -28.71,-76.953 -2.83,-27.797 28.71,-60.559 28.71,-60.559 l 3.04,-17.328 c -52.28,18.789 -110.14,42.996 -174.46,75.238 v 13.5 c 0,0 68.54,22.29 68.54,83.032 0,60.636 -105.37,107.609 -105.37,107.609 0,0 13.98,-22.051 17,-44.16 2.82,-22.281 -25.68,-49.723 -28.51,-77.27 -2.69,-27.441 28.51,-60.601 28.51,-60.601 l 2.26,-13.231 c -46.54,24.34 -96.83,52.571 -150.47,86.2 v 9.691 c 0,0 68.31,22.02 68.31,82.859 0,60.411 -105.57,107.621 -105.57,107.621 0,0 14.18,-22.289 17.21,-44.468 2.83,-21.871 -25.83,-49.473 -28.5,-76.953 -2.83,-27.579 28.5,-60.989 28.5,-60.989 l 0.9,-5.609 c -48.7,31.328 -99.85,66.598 -154.81,106.711 v 6.84 c 0,0 67.96,21.918 67.96,82.578 0,60.81 -105.3,107.58 -105.3,107.58 0,0 14.32,-22.03 17.14,-44.08 2.83,-22.19 -26.02,-49.809 -28.51,-77.18 -3.02,-27.519 28.51,-60.769 28.51,-60.769 v -0.161 c -39.11,29.129 -80.02,60.93 -122.38,95.399 v 20.521 c 0,0 68.39,22.19 68.39,82.76 0,60.66 -105.59,107.65 -105.59,107.65 0,0 14.06,-22.2 16.81,-44.16 3.03,-22.11 -25.48,-49.59 -28.31,-77.1 -3.04,-27.68 28.31,-60.77 28.31,-60.77 l 3.03,-14.69 c -33.27,27.03 -67.29,56.04 -102.402,86.6 5.362,35.58 2.882,129.33 -159.875,162.78 -11.016,-117.8 62.828,-185.82 143.472,-178.45 26.035,-32.04 53.105,-62.58 81.055,-91.59 l -17.9,0.441 c 0,0 -38.57,24.859 -66.397,17.699 -27.758,-6.851 -51.371,-38.531 -74.371,-39.09 -23.149,-0.781 -48.012,9.321 -48.012,9.321 0,0 64.539,-93.5 126.645,-84.192 61.855,9.641 73.645,78.34 73.645,78.34 l 20.24,3.141 c 43.38,-44.09 88.22,-84.93 134.1,-122.43 l -21.96,-2.449 c 0,0 -41.97,18.969 -68.2,8.57 -26.59,-10.871 -45.66,-45.531 -68.03,-49.351 -22.87,-3.891 -48.92,2.84 -48.92,2.84 0,0 77.4,-83.75 137.48,-66.129 60.06,18.238 61.84,87.781 61.84,87.781 l 22.31,6.879 c 56.16,-45.121 113.65,-85.559 170.88,-122.172 l -21.22,-5.129 c 0,0 -44.35,13.77 -68.93,-0.531 -24.8,-13.949 -38.58,-50.578 -60.54,-57.289 -21.85,-6.95 -48.69,-3.551 -48.69,-3.551 0,0 88.52,-72.899 145.38,-47.629 57.04,25.59 48.83,95.051 48.83,95.051 l 21.06,9.238 c 53.18,-32.801 106.28,-62.5 157.86,-88.641 l -17,-6.328 c 0,0 -45.51,8.95 -68.94,-7.488 -22.59,-16.711 -32.57,-54.281 -53.45,-63.152 -21.08,-9.27 -48.13,-8.692 -48.13,-8.692 0,0 95.8,-63.679 149.58,-32.226 54.06,31 38.31,99.429 38.31,99.429 l 17.35,9.84 c 60.06,-29.91 118.68,-55.301 172.65,-76.699 L 1746.5,509.68 c 0,0 -46.42,-2.43 -64.46,-23.809 -18.13,-21.332 -17.91,-60.391 -35.96,-74.281 -18.24,-13.738 -44.27,-19.61 -44.27,-19.61 0,0 108.89,-38.718 153.23,4.411 44.21,43.078 11.64,105.507 11.64,105.507 l 12.27,11.602 c 177.88,-68.102 311.29,-92.309 332.89,-91.109 0,0 62.88,44.007 14.52,68.808" /><path
         id="path102"
         style="fill:#294936;fill-opacity:1;fill-rule:evenodd;stroke:none"
         d="m 1045.31,2991.88 34.36,11.13 v 60.79 l 102.69,-44.16 85.27,5.55 74.19,-44.14 v -99.28 l 85.88,5.5 -17.36,-49.88 79.87,-77.16 63.04,22.11 73.9,-10.9 -45.72,82.72 28.51,27.61 154.04,-132.46 74.26,-11.21 182.62,-5.42 165.19,104.71 171.11,49.88 159.89,99.43 17.09,-27.7 -62.83,-71.73 11.58,-44.15 79.91,49.63 13.07,-33.09 43.78,10.98 85.52,-66.19 5.98,-38.81 -74.37,-22.04 -5.65,-88.22 -28.71,-49.65 -85.37,-5.56 -39.88,-77.1 -85.47,-55.39 h -103.08 l -39.65,-38.48 34.27,-71.76 73.92,-5.55 171.25,-232.03 -57.1,-49.36 -102.46,5.37 -45.75,-82.67 -256.78,-16.63 17.17,99.3 -96.73,143.48 22.53,77.46 -205.27,-5.49 -45.69,54.93 -131.18,27.69 -170.94,83.03 -11.65,-38.81 -51.23,55.19 h -256.82 l -56.84,-27.58 16.89,-77.17 -34.24,-16.71 -74.175,121.46 74.175,44.21 45.87,55.07 -28.52,121.51 91.07,71.5 -131.08,71.75 5.65,154.49" /><path
         id="path104"
         style="fill:#294936;fill-opacity:1;fill-rule:evenodd;stroke:none"
         d="m 2557.1,3008.63 18.79,-44.08 60.89,5.52 -45.66,-44.18 28.52,-22.19 68.31,5.41 51.58,-98.98 119.91,44.03 250.91,-154.67 96.94,22.11 16.97,-204.04 125.78,-287.02 228.09,-220.53 68.43,109.9 v 88.66 l 51.49,-55.51 147.86,110.65 -10.97,60.58 102.53,110.22 -456.57,546.55 h -130.86 l -114.27,71.57 -153.86,-27.36 -382.45,88.37 -22.62,-49.87 -119.74,-55.14" /><path
         id="path106"
         style="fill:none;stroke:#231f20;stroke-width:1.34000003;stroke-linecap:butt;stroke-linejoin:miter;stroke-miterlimit:22.9260006;stroke-dasharray:none;stroke-opacity:1"
         d="m 2368.85,3874.98 279.29,413.95" /><path
         id="path108"
         style="fill:#231f20;fill-opacity:1;fill-rule:nonzero;stroke:none"
         d="m 2370.04,3874.14 279.48,413.88 -2.62,1.77 -279.3,-413.95" /><path
         id="path110"
         style="fill:#482f71;fill-opacity:1;fill-rule:evenodd;stroke:none"
         d="m 1524.39,3560.33 h -456.43 v -331 h 456.43 v 331" /><path
         id="path112"
         style="fill:#482f71;fill-opacity:1;fill-rule:evenodd;stroke:none"
         d="m 2060.67,3560.33 h 515.2 v -331 h -515.2 v 331" /><path
         id="path114"
         style="fill:#482f71;fill-opacity:1;fill-rule:evenodd;stroke:none"
         d="m 3201.6,3560.36 h -444.84 v -331.01 h 68.51 V 2153.11 c 0,0 0,-353.12 -439.46,-353.12 -439.2,0 -433.8,353.12 -433.8,353.12 v 1076.24 h 62.96 v 331.01 h -444.92 v -331.01 h 80.1 V 2153.11 c 0,-49.59 0,-639.9 741.52,-639.9 741.54,0 747.06,595.97 747.06,639.9 v 1076.24 h 62.87 v 331.01" /><path
         id="path116"
         style="fill:#482f71;fill-opacity:1;fill-rule:evenodd;stroke:none"
         d="m 3195.96,2624.05 h 479.22 c 45.53,0 267.94,42.63 267.94,323.87 0,281.43 -216.79,281.43 -256.57,281.43 h -433.64 v 331.01 h 427.76 c 0,0 570.48,-5.35 570.48,-606.83 0,-601.72 -496.43,-629.24 -575.97,-629.24 h -479.22 v 299.76" /><path
         id="path118"
         style="fill:#482f71;fill-opacity:1;fill-rule:evenodd;stroke:none"
         d="m 1650.15,1463.34 h 301.94 v 88.28 c -273.62,149.07 -301.94,347.71 -301.94,347.71 v -435.99" /><path
         id="path120"
         style="fill:#482f71;fill-opacity:1;fill-rule:evenodd;stroke:none"
         d="m 3138.73,1463.34 h -302.35 v 88.28 c 273.97,149.07 302.35,358.7 302.35,358.7 v -446.98" /><path
         id="path122"
         style="fill:none;stroke:#231f20;stroke-width:1.34000003;stroke-linecap:round;stroke-linejoin:round;stroke-miterlimit:22.9260006;stroke-dasharray:none;stroke-opacity:1"
         d="m 1313.65,1284.61 v 0" /><path
         id="path124"
         style="fill:none;stroke:#231f20;stroke-width:1.34000003;stroke-linecap:round;stroke-linejoin:round;stroke-miterlimit:22.9260006;stroke-dasharray:none;stroke-opacity:1"
         d="m 1075.75,1398.1 v 0" /><path
         id="path126"
         style="fill:#231f20;fill-opacity:1;fill-rule:nonzero;stroke:none"
         d="m 1313.65,1281.09 c 17.55,0 34.14,8.83 48.75,23.9 43.66,45.41 73.43,148.74 73.43,269.5 0,80.5 -13.24,153.11 -35.07,206.15 -10.82,26.43 -23.68,48.06 -38.36,63.15 -14.61,15.17 -31.2,23.93 -48.75,23.93 -17.92,0 -34.36,-8.76 -49.05,-23.93 -43.79,-45.32 -73.48,-148.69 -73.7,-269.3 0,-80.58 13.31,-153.35 35.06,-206.32 11.01,-26.5 23.92,-48.1 38.64,-63.18 14.69,-15.07 31.13,-23.9 49.05,-23.9 l 3.59,3.55 -3.59,3.62 c -15.23,0 -29.95,7.52 -43.93,21.61 -41.49,42.47 -71.57,145.11 -71.57,264.62 0,79.54 13.29,151.74 34.56,203.55 10.6,25.81 23.36,46.74 37.01,60.83 13.98,14.25 28.7,21.69 43.93,21.69 15.08,0 29.73,-7.44 43.6,-21.69 41.45,-42.57 71.55,-145.02 71.55,-264.38 0,-79.66 -13.3,-151.82 -34.58,-203.64 -10.62,-25.96 -23.34,-46.73 -36.97,-60.98 -13.87,-14.26 -28.52,-21.61 -43.6,-21.61 l -3.74,-3.62 3.74,-3.55" /><path
         id="path128"
         style="fill:#231f20;fill-opacity:1;fill-rule:nonzero;stroke:none"
         d="m 1072.79,1395.92 c 13.09,-16.4 35.07,-23.77 62.68,-23.77 64.11,0.05 160.15,39.65 252.55,108.37 53.87,39.8 98.14,83.48 129.14,124.64 30.77,41.28 48.47,80.09 48.47,111.22 0,13.88 -3.5,26.38 -11.48,36.29 -12.88,16.45 -35.27,23.84 -62.69,23.84 -64.32,-0.09 -160.26,-39.55 -252.41,-107.91 -53.79,-39.94 -98.28,-83.74 -129.13,-125 -30.94,-41.32 -48.62,-80.26 -48.62,-111.26 0,-13.96 3.72,-26.51 11.49,-36.42 l 5.09,-0.66 0.77,5.05 c -6.97,8.47 -10.14,19.22 -10.14,32.03 -0.13,28.23 16.68,66.32 47.25,106.92 30.31,40.78 74.25,84.07 127.55,123.73 91.2,67.7 186.64,106.49 248.15,106.34 26.4,0 46.01,-6.98 57.04,-21.01 6.74,-8.55 10.05,-19.31 10.05,-31.94 0,-28.45 -16.81,-66.48 -47.25,-106.94 -30.29,-40.61 -74.19,-83.68 -127.55,-123.13 -91.7,-68.29 -187.07,-107.17 -248.28,-107.1 -26.38,0.07 -45.89,7.15 -56.82,21.1 l -5.17,0.6 -0.69,-4.99" /><path
         id="path130"
         style="fill:#231f20;fill-opacity:1;fill-rule:nonzero;stroke:none"
         d="m 1548.5,1400.23 c -11.03,-13.92 -30.64,-20.93 -56.9,-21.02 -61.42,-0.07 -157.09,38.81 -248.29,107.03 -53.3,39.52 -97.24,82.61 -127.55,123.27 -30.57,40.47 -47.38,78.42 -47.25,106.87 0,12.65 3.17,23.39 10.14,31.94 10.93,14.03 30.44,21.01 56.82,21.01 61.44,0.17 156.77,-38.64 248.28,-106.34 53.36,-39.66 97.26,-82.95 127.55,-123.73 30.44,-40.6 47.25,-78.69 47.25,-106.92 0,-12.81 -3.31,-23.56 -10.05,-32.03 l 0.49,-5.05 5.16,0.66 c 7.98,9.98 11.48,22.46 11.48,36.42 0,31 -17.7,69.94 -48.47,111.2 -30.85,41.32 -75.14,85.12 -129.14,125.06 -92.4,68.36 -188.31,107.82 -252.55,107.91 -27.48,0 -49.59,-7.39 -62.68,-23.84 -7.77,-9.91 -11.49,-22.41 -11.49,-36.29 0,-31.13 17.68,-70.03 48.62,-111.22 30.85,-41.16 75.34,-84.79 129.13,-124.64 92.15,-68.72 188.28,-108.32 252.55,-108.37 27.49,0 49.67,7.37 62.55,23.77 l -0.7,5.05 -4.95,-0.74" /><path
         id="path132"
         style="fill:none;stroke:#231f20;stroke-width:1.34000003;stroke-linecap:round;stroke-linejoin:round;stroke-miterlimit:22.9260006;stroke-dasharray:none;stroke-opacity:1"
         d="m 1551.33,1398.1 v 0" /><path
         id="path134"
         style="fill:#231f20;fill-opacity:1;fill-rule:nonzero;stroke:none"
         d="m 1313.65,1617.61 c -24.8,0 -44.98,-19.15 -44.98,-43.14 0,-24.23 20.18,-43.57 44.98,-43.57 24.23,0 44.42,19.34 44.42,43.57 0,23.99 -20.19,43.14 -44.42,43.14" /><path
         id="path136"
         style="fill:#231f20;fill-opacity:1;fill-rule:nonzero;stroke:none"
         d="m 1064.11,1441.71 c -18.44,0 -33.32,-14.14 -33.32,-32.16 0,-17.91 14.88,-32.31 33.32,-32.37 18.05,0.06 33.13,14.37 33.13,32.37 0,18.02 -15.08,32.16 -33.13,32.16" /><path
         id="path138"
         style="fill:#231f20;fill-opacity:1;fill-rule:nonzero;stroke:none"
         d="m 1546.01,1430.54 c -18.24,0 -33.12,-14.37 -33.12,-32.37 0,-17.83 15.01,-31.94 33.12,-32.02 18.24,0.08 33.13,14.19 33.26,32.02 -0.13,18 -15.02,32.24 -33.26,32.37" /><path
         id="path140"
         style="fill:#231f20;fill-opacity:1;fill-rule:evenodd;stroke:none"
         d="m 1307.11,1888.27 c -18.26,0 -32.98,-14.52 -32.98,-32.35 0,-17.72 14.92,-31.73 32.98,-31.73 18.23,0 33.11,13.94 33.11,31.73 0,17.83 -14.88,32.35 -33.11,32.35" /><path
         id="path142"
         style="fill:#231f20;fill-opacity:1;fill-rule:nonzero;stroke:none"
         d="m 2215.96,4205.9 c 0,0 12.52,3.62 33.24,7.1 20.85,3.51 49.73,7 82.23,7 59.19,0.05 130.46,-11.73 186.9,-56.21 l 2.31,2.8 c -57.41,45.31 -129.53,57.08 -189.21,57.08 -65.51,0 -116.31,-14.36 -116.31,-14.36 l 0.84,-3.41" /><path
         id="path144"
         style="fill:#231f20;fill-opacity:1;fill-rule:nonzero;stroke:none"
         d="m 2187.12,4163.69 c 0,0 12.43,3.62 33.09,7.08 20.65,3.46 49.66,7.06 82.23,7.06 59.14,0 130.28,-11.83 186.78,-56.29 l 2.43,2.83 c -57.5,45.25 -129.52,57 -189.21,57 -65.6,0 -116.39,-14.21 -116.39,-14.21 l 1.07,-3.47" /><path
         id="path146"
         style="fill:#231f20;fill-opacity:1;fill-rule:nonzero;stroke:none"
         d="m 2163,4121.26 c 0,0 12.58,3.54 33.24,7.03 20.83,3.57 49.72,6.98 82.22,6.98 59.21,0 130.38,-11.69 186.89,-56.13 l 2.32,2.72 c -57.62,45.31 -129.66,57.1 -189.21,57.1 -65.66,0 -116.32,-14.28 -116.32,-14.28 l 0.86,-3.42" /><path
         id="path148"
         style="fill:#231f20;fill-opacity:1;fill-rule:nonzero;stroke:none"
         d="m 2305.78,4330.9 c 0,0 12.49,3.62 33.22,7.12 20.78,3.5 49.74,7.04 82.11,7.04 59.34,0 130.52,-11.77 186.92,-56.21 l 2.4,2.65 c -57.6,45.41 -129.7,57.18 -189.32,57.18 -65.53,0 -116.19,-14.22 -116.44,-14.22 l 1.11,-3.56" /><path
         id="path150"
         style="fill:#231f20;fill-opacity:1;fill-rule:nonzero;stroke:none"
         d="m 2276.72,4288.84 c 0,0.04 12.43,3.53 33.09,7.02 20.91,3.58 49.85,7.2 82.37,7.2 59.19,0 130.38,-11.84 186.89,-56.29 l 2.14,2.85 c -57.38,45.19 -129.34,56.98 -189.03,56.98 -65.74,0 -116.34,-14.29 -116.47,-14.29 l 1.01,-3.47" /><path
         id="path152"
         style="fill:#231f20;fill-opacity:1;fill-rule:nonzero;stroke:none"
         d="m 2252.83,4246.41 c 0,0 12.41,3.54 33.07,7.09 20.92,3.59 49.88,7.13 82.31,7.13 59.27,0 130.47,-11.79 186.72,-56.29 l 2.41,2.75 c -57.46,45.31 -129.51,57 -189.13,57 -65.59,0 -116.26,-14.21 -116.39,-14.21 l 1.01,-3.47" /><path
         id="path154"
         style="fill:#231f20;fill-opacity:1;fill-rule:nonzero;stroke:none"
         d="m 2133.81,4084.41 c 0,0 12.51,3.54 33.22,6.96 20.76,3.64 49.74,7.13 82.17,7.13 59.19,0 130.67,-11.7 186.89,-56.21 l 2.37,2.81 c -57.36,45.17 -129.47,57.01 -189.26,57.01 -65.59,0 -116.25,-14.29 -116.25,-14.29 l 0.86,-3.41" /><path
         id="path156"
         style="fill:#231f20;fill-opacity:1;fill-rule:nonzero;stroke:none"
         d="m 2104.75,4041.92 c 0,0 12.56,3.68 33.22,7.17 20.75,3.59 49.79,7.05 82.39,7.05 59.19,0 130.43,-11.67 186.74,-56.27 l 2.3,2.83 c -57.41,45.21 -129.52,57 -189.04,57 -65.68,0 -116.47,-14.23 -116.47,-14.23 l 0.86,-3.55" /><path
         id="path158"
         style="fill:#231f20;fill-opacity:1;fill-rule:nonzero;stroke:none"
         d="m 2080.84,3999.55 c 0,0 12.58,3.63 33.24,7.1 20.96,3.5 49.79,7.08 82.36,7.08 59.2,0 130.46,-11.73 186.89,-56.21 l 2.18,2.8 c -57.39,45.18 -129.27,57 -189.07,57 -65.68,0 -116.47,-14.3 -116.47,-14.3 l 0.87,-3.47" /><path
         id="path160"
         style="fill:#231f20;fill-opacity:1;fill-rule:nonzero;stroke:none"
         d="m 2634.77,4180.09 c 0,0 12.53,3.54 33.42,7.01 20.54,3.64 49.51,7.06 81.95,7.06 59.16,0 130.38,-11.7 186.87,-56.06 l 2.05,2.65 c -57.17,45.25 -129.21,57.02 -188.92,57.02 -65.5,0 -116.19,-14.21 -116.39,-14.21 l 1.02,-3.47" /><path
         id="path162"
         style="fill:#231f20;fill-opacity:1;fill-rule:nonzero;stroke:none"
         d="m 2605.79,4137.79 c 0,0 12.5,3.62 33.26,7.1 20.79,3.6 49.68,7.16 82.24,7.16 59.16,0 130.38,-11.77 186.64,-56.3 l 2.35,2.82 c -57.46,45.21 -129.34,57.07 -188.99,57.07 -65.71,0 -116.37,-14.31 -116.5,-14.31 l 1,-3.54" /><path
         id="path164"
         style="fill:#231f20;fill-opacity:1;fill-rule:nonzero;stroke:none"
         d="m 2581.67,4095.36 c 0,0 12.58,3.55 33.34,7.1 20.86,3.58 49.79,7.06 82.39,7.06 59.16,0 130.3,-11.79 186.62,-56.14 l 2.29,2.66 c -57.37,45.31 -129.47,57.17 -188.91,57.17 -65.71,0 -116.58,-14.48 -116.7,-14.48 l 0.97,-3.37" /><path
         id="path166"
         style="fill:#231f20;fill-opacity:1;fill-rule:nonzero;stroke:none"
         d="m 2724.24,4305.15 c 0,0 12.63,3.62 33.34,7.1 20.74,3.6 49.59,7.04 82.17,7.04 59.37,0 130.62,-11.59 186.85,-56.12 l 2.28,2.76 c -57.32,45.28 -129.43,56.98 -189.13,56.98 -65.49,0 -116.34,-14.22 -116.53,-14.22 l 1.02,-3.54" /><path
         id="path168"
         style="fill:#231f20;fill-opacity:1;fill-rule:nonzero;stroke:none"
         d="m 2695.39,4262.94 c 0,0 12.4,3.53 33.26,7.08 20.74,3.58 49.67,7.06 82.02,7.06 59.37,0.08 130.52,-11.71 187.07,-56.19 l 2.28,2.83 c -57.58,45.19 -129.61,57.05 -189.35,57.05 -65.49,0 -116.1,-14.36 -116.3,-14.36 l 1.02,-3.47" /><path
         id="path170"
         style="fill:#231f20;fill-opacity:1;fill-rule:nonzero;stroke:none"
         d="m 2671.5,4220.5 c 0,0 12.4,3.63 33.34,7.1 20.65,3.59 49.57,7.13 82.16,7.13 59.15,0 130.36,-11.79 186.62,-56.12 l 2.36,2.75 c -57.43,45.06 -129.48,56.85 -188.98,56.85 -65.71,0 -116.4,-14.23 -116.54,-14.23 l 1.04,-3.48" /><path
         id="path172"
         style="fill:#231f20;fill-opacity:1;fill-rule:nonzero;stroke:none"
         d="m 2552.48,4058.51 c 0.13,0.09 12.56,3.63 33.29,7.17 20.71,3.52 49.64,6.92 82.21,6.92 59.15,0 130.3,-11.65 186.85,-56.21 l 2.28,2.81 c -57.36,45.17 -129.48,57.1 -189.13,57.1 -65.56,0 -116.35,-14.25 -116.35,-14.25 l 0.85,-3.54" /><path
         id="path174"
         style="fill:#231f20;fill-opacity:1;fill-rule:nonzero;stroke:none"
         d="m 2523.42,4016.3 c 0,0 12.56,3.62 33.23,7.03 20.84,3.62 49.74,7.13 82.25,7.13 59.19,0 130.38,-11.78 186.87,-56.28 l 2.26,2.82 c -57.56,45.22 -129.61,57 -189.13,57 -65.67,0 -116.34,-14.3 -116.48,-14.3 l 1,-3.4" /><path
         id="path176"
         style="fill:#231f20;fill-opacity:1;fill-rule:nonzero;stroke:none"
         d="m 2499.52,3973.82 c 0,0 12.57,3.59 33.23,7.16 20.83,3.49 49.79,7.03 82.47,7.03 59.1,0 130.11,-11.75 186.65,-56.18 l 2.13,2.82 c -57.22,45.23 -129.34,56.98 -188.78,56.98 -65.77,0 -116.54,-14.35 -116.71,-14.35 l 1.01,-3.46" /><path
         id="path178"
         style="fill:#d82530;fill-opacity:1;fill-rule:evenodd;stroke:none"
         d="m 1313.65,1536.69 c 21.06,0 38.77,16.84 38.77,37.78 0,20.68 -17.71,37.43 -38.77,37.43 -21.6,0 -39.12,-16.75 -39.12,-37.43 0,-20.94 17.52,-37.78 39.12,-37.78" /><path
         id="path180"
         style="fill:#d82530;fill-opacity:1;fill-rule:evenodd;stroke:none"
         d="m 1307.11,1829.79 c 15,0 27.18,11.72 27.18,26.13 0,14.56 -12.18,26.64 -27.18,26.64 -15.06,0 -27.07,-12.08 -27.07,-26.64 0,-14.41 12.01,-26.13 27.07,-26.13" /><path
         id="path182"
         style="fill:#d82530;fill-opacity:1;fill-rule:evenodd;stroke:none"
         d="m 1064.11,1382.96 c 14.87,0 27.27,11.84 27.27,26.59 0,14.66 -12.4,26.44 -27.27,26.44 -15.41,0 -27.67,-11.78 -27.67,-26.44 0,-14.75 12.26,-26.59 27.67,-26.59" /><path
         id="path184"
         style="fill:#d82530;fill-opacity:1;fill-rule:evenodd;stroke:none"
         d="m 1546.01,1371.86 c 15.1,0 27.41,11.79 27.41,26.31 0,14.69 -12.31,26.59 -27.41,26.59 -15.01,0 -27.28,-11.9 -27.28,-26.59 0,-14.52 12.27,-26.31 27.28,-26.31" /><path
         id="path186"
         style="fill:#231f20;fill-opacity:1;fill-rule:nonzero;stroke:none"
         d="m 3845.57,1582.28 v 0 c 0.67,-3.03 1.36,-5.58 2.14,-8.08 -0.14,-7.12 -5.65,-12.45 -12.96,-13.18 h -3.17 -134.79 c -7.57,15.07 -20.38,27.24 -35.73,34.76 v 129.92 3.41 c 0.68,6.72 6.2,11.98 13.42,12.14 2.34,-0.29 4.95,-1.15 7.99,-2.01 h 0.13 v -0.07 c 79.56,-19.79 141.87,-80.05 162.97,-156.89 m -190.02,-55.99 c 0,-16.06 -13.5,-29.28 -30.51,-29.35 -16.82,0.07 -30.45,13.29 -30.45,29.35 0,16.11 13.63,29.4 30.45,29.4 17.01,0 30.51,-13.29 30.51,-29.4 m -250.85,55.99 c 21.08,76.84 83.48,137.1 162.96,156.89 l 0.21,0.07 c 2.95,0.86 5.65,1.72 8.09,2.01 6.98,-0.09 12.63,-5.42 13.32,-12.07 v -3.48 -130 c -15.43,-7.49 -27.97,-19.61 -35.73,-34.68 h -134.86 -3.3 c -7.3,0.73 -12.4,6.01 -12.62,13.18 0.56,2.66 1.25,5.25 1.93,8.08 m -0.13,-111.58 v 0 c -0.55,2.55 -1.24,5.21 -1.8,7.88 0.22,6.72 5.32,12.07 12.76,13.18 h 3.57 134.45 c 7.76,-15.41 20.3,-27.4 35.73,-34.94 v -130.2 -3.22 c -0.55,-6.84 -6.34,-12.24 -13.64,-12.44 -2.48,0.64 -5.52,1.59 -8.26,2.38 h -0.23 c -79.34,20.14 -141.84,80.7 -162.58,157.36 m 270.13,-159.74 c -7.44,0.2 -12.77,5.48 -13.64,12.48 v 3.18 130.2 c 15.35,7.54 28.16,19.46 35.94,34.94 h 134.37 3.38 c 7.31,-1.11 12.82,-6.52 12.96,-13.09 -0.78,-2.76 -1.25,-5.42 -2.02,-7.44 l -0.12,-0.38 v -0.15 c -20.6,-76.66 -82.73,-137.22 -162.28,-157.36 -3.16,-0.79 -5.98,-1.74 -8.59,-2.38 m 248.04,252.24 c -1.56,12.42 -4.03,24.64 -7.39,36.49 l 50.13,19.44 -27.29,66.82 -50.26,-19.27 c -7.68,13.37 -16.34,25.86 -25.7,37.85 l 37.88,36.72 -52.77,51.3 -38.08,-37.2 c -10.8,8.45 -22.64,16.12 -34.71,22.82 l 20.35,48.44 -68.34,27.43 -20.73,-48.05 c -14.54,3.99 -29.55,6.72 -44.77,8.66 v 52.61 h -74.6 v -53.03 c -14.17,-1.81 -28.17,-4.53 -41.78,-8.24 l -20.89,48.05 -68.81,-27.55 20.94,-48.32 c -12.19,-6.7 -23.89,-14.37 -35.05,-22.82 l -38.33,37.2 -52.37,-51.3 38.28,-36.72 c -9.7,-12.05 -18.24,-24.55 -25.89,-37.85 l -50.08,19.27 -27.62,-66.82 49.94,-19.49 c -3.18,-11.8 -5.51,-24.02 -7.12,-36.44 h -55.62 v -72.5 h 55.3 c 1.52,-12.84 4.26,-25.63 7.44,-37.83 l -49.94,-19.53 27.62,-66.91 50.08,19.38 c 7.65,-13.09 16.19,-25.78 25.89,-37.88 l -38.28,-36.84 52.37,-50.66 38.33,36.57 c 11.16,-8.38 22.86,-15.91 35.05,-22.56 l -20.94,-48.4 68.81,-27.64 20.89,48.19 c 13.61,-3.71 27.61,-6.54 41.78,-8.32 v -51.68 h 74.6 v 51.29 c 15.35,1.69 30.23,4.8 44.77,8.71 l 20.73,-48.19 68.34,27.64 -20.35,48.4 c 12.07,6.65 23.69,14.09 34.85,22.53 l 37.94,-36.54 52.77,50.66 -37.88,36.84 c 9.36,11.98 18.02,24.66 25.7,37.88 l 50.26,-19.38 27.29,66.91 -50.13,19.53 c 3.36,12.29 6.04,24.99 7.63,37.83 h 52.21 v 5.73 66.77 h -52.45" /><path
         id="path188"
         style="fill:#a07c25;fill-opacity:1;fill-rule:evenodd;stroke:none"
         d="m 3693.63,1555.28 v 0 c -7.44,16.45 -21.42,29.91 -38.49,37.12 v 133.35 3.87 c 1.05,9.78 9.28,17.45 19.68,17.45 3.19,-0.46 6.22,-1.53 9.24,-2.39 81.49,-20.25 145.6,-82.17 167.15,-160.87 0.74,-3.39 1.65,-6.29 2.33,-9.32 0,-10.34 -8.12,-18.29 -18.24,-19.21 h -3.72 z m -98.49,37.12 v 0 c -17.01,-7.21 -30.78,-20.67 -38.23,-37.12 h -138.22 -3.65 c -10.34,0.92 -18.24,8.87 -18.24,19.21 0.88,3.03 1.58,5.93 2.48,9.32 21.4,78.7 85.32,140.62 167,160.87 3.03,0.86 6.01,1.93 9.36,2.39 10.14,0 18.61,-7.67 19.5,-17.45 v -3.87 z m 240.26,-95.03 v 0 c 10.02,-1.28 18.14,-9.05 18.14,-19.2 -0.68,-2.81 -1.23,-5.93 -2.33,-8.87 -21.07,-78.7 -84.99,-140.86 -166.45,-161.57 -3.39,-0.85 -6.58,-1.92 -9.58,-2.69 -10.76,0 -18.99,7.93 -20.04,17.86 v 3.75 133.51 c 17.07,7.38 31.05,20.38 38.49,37.21 h 137.74 z m -278.49,0 v 0 c 7.45,-16.83 21.22,-29.83 38.23,-37.21 v -133.51 -3.75 c -0.89,-9.93 -9.36,-17.86 -19.83,-17.86 -3.17,0.77 -6.54,1.84 -9.58,2.69 -81.49,20.71 -145.38,82.87 -166.81,161.57 -0.54,2.94 -1.24,6.06 -2.12,8.87 0.12,10.15 7.9,17.92 18.04,19.2 h 4.26 z m 68.13,-6.1 v 0 c -19.97,0 -36.31,15.65 -36.31,35.02 0,19.39 16.34,35.19 36.31,35.19 20.04,0 36.36,-15.8 36.36,-35.19 0,-19.37 -16.32,-35.02 -36.36,-35.02 m 344.57,5.18 v 60.93 h -51.8 c -1.72,15.66 -4.97,31.05 -9.24,45.79 l 49.46,19.22 -23.2,56.17 -49.42,-18.93 c -8.66,16.12 -19.34,31.18 -30.98,45.52 l 37.35,36.04 -44.44,43.31 -37.39,-36.74 c -13.29,10.7 -27.74,20.11 -42.84,28.11 h 0.21 l 19.99,47.56 -57.59,23.12 -20.53,-47.32 c -17.35,5.05 -35.6,8.54 -54.05,10.47 v 51.88 h -62.84 v -52.23 c -17.34,-1.97 -34.59,-5.19 -51.15,-10.12 l -20.59,47.32 -57.92,-23.12 20.5,-47.56 c -15.02,-8 -29.53,-17.41 -42.82,-28.11 l -37.74,36.74 -44.08,-43.31 37.52,-36.04 c -11.82,-14.34 -22.09,-29.4 -31.1,-45.52 l -49.27,18.93 -23.21,-56.17 49.24,-19.22 c -4.26,-14.74 -7.32,-30.13 -9,-45.79 h -54.76 v -60.93 h 54.53 c 1.47,-16.03 4.97,-31.94 9.23,-47.09 l -49.24,-19.23 23.21,-56.35 49.27,19.06 c 9.01,-15.91 19.28,-31.23 31.1,-45.46 l -37.52,-36.34 44.08,-42.54 37.74,35.94 c 13.29,-10.52 27.8,-19.83 42.82,-27.56 l -20.5,-47.61 57.92,-23.43 20.59,47.46 c 16.56,-4.72 33.81,-8.29 51.15,-10.11 v -50.94 h 62.84 v 50.67 c 18.45,1.57 36.7,5.54 54.05,10.38 l 20.53,-47.46 57.59,23.43 -19.99,47.61 c 14.89,7.73 29.34,17.04 42.63,27.56 l 37.39,-35.94 44.44,42.54 -37.35,36.34 c 11.64,14.23 22.32,29.55 30.98,45.46 l 49.42,-19.06 23.2,56.35 -49.46,19.23 c 4.27,15.15 7.66,31.06 9.46,47.09 h 51.58" /></g></g></svg>