<?xml version="1.0" encoding="utf-8"?>
<!-- Generator: Adobe Illustrator 16.2.0, SVG Export Plug-In . SVG Version: 6.00 Build 0)  -->
<!DOCTYPE svg PUBLIC "-//W3C//DTD SVG 1.1//EN" "http://www.w3.org/Graphics/SVG/1.1/DTD/svg11.dtd">
<svg version="1.1" id="Layer_1" xmlns="http://www.w3.org/2000/svg" xmlns:xlink="http://www.w3.org/1999/xlink" x="0px" y="0px"
	 width="371.799px" height="72px" viewBox="0 0 371.799 72" enable-background="new 0 0 371.799 72" xml:space="preserve">
<path fill="#FFFFFF" d="M310.361,65.263c0.281,0.245,0.578,0.481,0.87,0.721C305.524,69.784,298.672,72,291.301,72
	c-19.883,0-36-16.117-36-36c0-19.882,16.117-36,36-36c7.371,0,14.223,2.217,19.93,6.017c-0.292,0.239-0.588,0.475-0.87,0.721
	c-8.481,7.379-13.345,18.045-13.345,29.263C297.016,47.219,301.879,57.885,310.361,65.263z M335.799,0
	c-7.37,0-14.222,2.217-19.929,6.017c0.292,0.239,0.588,0.475,0.87,0.721c8.481,7.379,13.346,18.045,13.346,29.263
	c0,11.219-4.864,21.884-13.345,29.263c-0.281,0.245-0.579,0.481-0.871,0.721C321.577,69.784,328.429,72,335.799,72
	c19.883,0,36-16.117,36-36C371.799,16.118,355.682,0,335.799,0z M313.551,7.711c-0.465,0.364-0.918,0.74-1.363,1.127
	c-7.586,6.601-12.387,16.317-12.387,27.162s4.801,20.562,12.387,27.162c0.445,0.387,0.898,0.763,1.363,1.128
	c0.463-0.365,0.918-0.741,1.362-1.128C322.5,56.562,327.301,46.845,327.301,36S322.5,15.438,314.914,8.838
	C314.469,8.451,314.014,8.075,313.551,7.711"/>
<g>
	<defs>
		<path id="SVGID_1_" d="M65.534,1.372L46.837,48.634L39.274,8.45c-0.885-4.486-4.392-7.078-8.285-7.078H0.422L0,3.386
			c6.272,1.365,13.403,3.564,17.721,5.91c2.644,1.435,3.398,2.688,4.267,6.099L36.31,70.813h18.987l29.104-69.44H65.534z
			 M92.111,1.372l-14.859,69.44h17.963l14.854-69.44H92.111z M195.102,20.135l5.443,26.073h-14.9L195.102,20.135z M192.469,1.372
			c-3.448,0-6.357,2.005-7.646,5.093l-26.954,64.348h18.858l3.748-10.376h23.043l2.172,10.376h16.612L207.8,1.372H192.469z
			 M114.963,23.055c-0.117,10.002,8.92,15.574,15.729,18.899c6.995,3.403,9.342,5.587,9.316,8.63
			c-0.054,4.66-5.583,6.714-10.753,6.794c-9.03,0.142-14.272-2.439-18.449-4.386l-3.252,15.217
			c4.194,1.925,11.942,3.604,19.976,3.689c18.872,0,31.214-9.319,31.273-23.761c0.079-18.324-25.341-19.335-25.167-27.523
			c0.059-2.49,2.429-5.137,7.618-5.816c2.572-0.334,9.672-0.595,17.709,3.106l3.158-14.725c-4.324-1.568-9.883-3.078-16.807-3.078
			C127.562,0.102,115.064,9.541,114.963,23.055"/>
	</defs>
	<use xlink:href="#SVGID_1_"  overflow="visible" fill="#FFFFFF"/>
	<clipPath id="SVGID_2_">
		<use xlink:href="#SVGID_1_"  overflow="visible"/>
	</clipPath>
	<rect y="0.102" clip-path="url(#SVGID_2_)" fill="#FFFFFF" width="222.302" height="71.797"/>
</g>
</svg>
